<svg xmlns="http://www.w3.org/2000/svg" xmlns:xlink="http://www.w3.org/1999/xlink" aria-hidden="true" role="img" class="iconify iconify--logos" width="35.93" height="32" preserveAspectRatio="xMidYMid meet" viewBox="0 0 256 228"><path fill="#00D8FF" d="M210.483 73.824a171.49 171.49 0 0 0-8.24-2.597c.465-1.9.893-3.777 1.273-5.621c6.238-30.281 2.16-54.676-11.769-62.708c-13.355-7.7-35.196.329-57.254 19.526a171.23 171.23 0 0 0-6.375 5.848a155.866 155.866 0 0 0-4.241-3.917C100.759 3.829 77.587-4.822 63.673 3.233C50.33 10.957 46.379 33.89 51.986 62.588a170.974 170.974 0 0 0 1.892 8.48c-3.28.932-6.445 1.924-9.474 2.98C17.309 83.498 0 98.307 0 113.668c0 15.865 18.582 31.778 46.812 41.427a145.52 145.52 0 0 0 6.921 2.165a167.467 167.467 0 0 0-2.01 9.138c-5.354 28.2-1.173 50.591 12.134 58.266c13.744 7.926 36.812-.22 59.273-19.855a145.567 145.567 0 0 0 5.342-4.923a168.064 168.064 0 0 0 6.92 6.314c21.758 18.722 43.246 26.282 56.54 18.586c13.731-7.949 18.194-32.003 12.4-61.268a145.016 145.016 0 0 0-1.535-6.842c1.62-.48 3.21-.974 4.76-1.488c29.348-9.723 48.443-25.443 48.443-41.52c0-15.417-17.868-30.326-45.517-39.844Zm-6.365 70.984c-1.4.463-2.836.91-4.3 1.345c-3.24-10.257-7.612-21.163-12.963-32.432c5.106-11 9.31-21.767 12.459-31.957a145.46 145.46 0 0 1 7.055 2.215c16.08 5.642 37.068 16.222 37.068 30.669c0 14.966-22.286 26.588-39.319 30.16Zm-14.507 45.21c-1.353 5.896-3.576 10.607-6.449 13.104c-5.79 5.032-16.652 2.244-28.882-7.59a153.823 153.823 0 0 1-6.381-5.827c5.479-5.942 10.926-12.602 16.166-19.878c8.233-1.2 15.984-2.797 23.061-4.73a131.696 131.696 0 0 1 1.384 6.13c.554 2.81.926 5.727 1.101 8.791Zm-83.479 29.158c-4.183 3.456-8.483 5.042-11.726 5.042c-6.768 0-14.636-6.788-19.53-18.536a153.634 153.634 0 0 1-1.752-7.92c7.097-1.534 14.722-3.558 22.69-6.01c5.319 7.492 10.883 14.352 16.535 20.406a131.564 131.564 0 0 1-6.217 7.018Zm-38.49-25.693c-9.227 3.192-17.71 5.31-24.703 6.208c-6.996.898-10.641.217-12.101-.592c-6.696-3.713-9.546-20.18-4.812-43.116a152.557 152.557 0 0 1 1.87-8.51c7.308 1.862 15.135 3.357 23.341 4.44c5.128 7.383 10.581 14.136 16.182 20.078a143.643 143.643 0 0 1-6.778 8.494c2.355 4.364 4.843 8.614 7.001 12.998Zm-6.49-38.256c-5.237-7.15-10.232-14.702-14.847-22.544c4.529-7.7 9.438-15.125 14.583-22.144c7.726 1.096 16.003 1.762 24.645 1.97c4.391 7.384 8.968 14.525 13.666 21.26a335.053 335.053 0 0 1-13.773 21.469c-8.646.234-16.873.924-24.274 1.989Zm26.398-60.844c-7.61-2.14-14.742-4.66-21.283-7.52a168.22 168.22 0 0 1 5.997-8.793c4.644-6.446 9.658-12.67 14.914-18.588c-5.25-5.926-10.258-12.152-14.896-18.594a168.22 168.22 0 0 1-5.996-8.789c6.54-2.866 13.673-5.388 21.284-7.528c-4.708 6.995-9.169 14.333-13.288 21.862c4.105 7.51 8.552 14.83 13.245 21.81a335.053 335.053 0 0 1 0 .002c-4.709 7.013-9.176 14.362-13.295 21.884a335.053 335.053 0 0 1 13.318 26.054ZM128 90.808c12.946 0 23.348 10.162 23.348 22.992c0 12.82-10.402 23.012-23.348 23.012c-12.944 0-23.348-10.192-23.348-23.012c0-12.83 10.404-22.992 23.348-22.992Zm56.79-26.608c5.106 11 9.31 21.767 12.459 31.957a145.46 145.46 0 0 1-7.055 2.215c-3.24-10.257-7.612-21.163-12.963-32.432c5.106-11 9.31-21.767 12.459-31.957a145.46 145.46 0 0 1 7.055 2.215c-3.24 10.257-7.612 21.163-12.955 27.002Z"></path></svg>
